<svg width="124" height="35" viewBox="0 0 124 35" fill="none" xmlns="http://www.w3.org/2000/svg">
<path d="M6.6 0.64C10.2267 0.64 13.0933 1.14667 15.2 2.16C17.3333 3.14667 18.9467 4.25333 20.04 5.48C20.92 6.49333 21.64 7.66667 22.2 9C22.76 10.3067 23.04 11.88 23.04 13.72C23.04 15.08 22.7333 16.5067 22.12 18C21.5067 19.4667 20.7067 20.6533 19.72 21.56C18.68 22.5467 17.6933 23.3467 16.76 23.96C15.8533 24.5733 14.6133 25.08 13.04 25.48C11.4933 25.8533 9.52 26.04 7.12 26.04C5.30667 26.04 3.66667 25.84 2.2 25.44C0.733333 25.0133 2.98023e-08 24.3067 2.98023e-08 23.32C2.98023e-08 22.92 0.173333 22.6133 0.52 22.4C0.893334 22.16 1.29333 22.04 1.72 22.04C1.96 22.04 2.12 22.0533 2.2 22.08C2.38667 20.32 2.48 18.4533 2.48 16.48C2.48 14.2667 2.42667 12.44 2.32 11C2.21333 9.53333 2.06667 8.08 1.88 6.64C1.85333 6.45333 1.78667 5.93333 1.68 5.08C1.6 4.22667 1.56 3.36 1.56 2.48C1.56 1.92 1.84 1.45333 2.4 1.08C2.96 0.679999 3.53333 0.48 4.12 0.48C4.46667 0.48 4.93333 0.506666 5.52 0.559999C6 0.613333 6.36 0.64 6.6 0.64ZM6.08 22.28C6.72 22.3867 7.56 22.44 8.6 22.44C10.36 22.44 12.0267 22.08 13.6 21.36C15.1733 20.6133 16.44 19.5867 17.4 18.28C18.36 16.9467 18.84 15.4133 18.84 13.68C18.84 11.8667 18.52 10.32 17.88 9.04C17.24 7.76 16.2533 6.70667 14.92 5.88C13.9333 5.26667 12.72 4.82667 11.28 4.56C9.84 4.26667 8.10667 4.12 6.08 4.12C6.08 4.76 6.12 5.56 6.2 6.52C6.2 6.84 6.22667 7.4 6.28 8.2C6.44 11.2933 6.52 13.7867 6.52 15.68C6.52 18.4267 6.37333 20.6267 6.08 22.28ZM43.7644 20.56C44.271 20.56 44.6444 20.76 44.8844 21.16C45.151 21.5333 45.2844 21.9467 45.2844 22.4C45.2844 22.96 45.191 23.36 45.0044 23.6C44.8444 23.8133 44.5244 24.04 44.0444 24.28C42.9244 24.8133 41.5377 25.24 39.8844 25.56C38.231 25.88 36.4577 26.04 34.5644 26.04C32.191 26.04 30.4444 25.64 29.3244 24.84C28.231 24.04 27.551 23.08 27.2844 21.96C27.0444 20.8133 26.9244 19.32 26.9244 17.48C26.9244 15.5067 27.0044 13.5733 27.1644 11.68C27.3244 9.76 27.6044 7.32 28.0044 4.36C28.191 3.08 28.6977 2.16 29.5244 1.6C30.351 1.01333 31.2577 0.719999 32.2444 0.719999C33.071 0.719999 34.4177 0.693333 36.2844 0.64L39.7644 0.599998C41.2044 0.599998 42.2444 0.639998 42.8844 0.719999C43.6844 0.879998 44.271 1.06667 44.6444 1.28C45.0444 1.46667 45.2444 1.8 45.2444 2.28C45.2444 2.81333 45.0577 3.33333 44.6844 3.84C44.3377 4.34667 43.8044 4.6 43.0844 4.6C42.2577 4.6 41.071 4.54667 39.5244 4.44C37.9777 4.33333 36.8177 4.28 36.0444 4.28C35.3777 4.28 34.7244 4.32 34.0844 4.4C33.3377 4.45333 32.8044 4.54666 32.4844 4.68C32.1644 4.81333 31.9777 5.04 31.9244 5.36C31.551 8.10667 31.3644 10.1333 31.3644 11.44C31.9777 11.52 32.5777 11.56 33.1644 11.56C33.911 11.56 34.711 11.52 35.5644 11.44C36.4177 11.36 36.9644 11.3067 37.2044 11.28C38.6177 11.1467 39.831 11.08 40.8444 11.08C41.431 11.08 41.871 11.1867 42.1644 11.4C42.4844 11.6133 42.6444 11.9067 42.6444 12.28C42.6444 12.8667 42.4844 13.32 42.1644 13.64C41.871 13.96 41.3377 14.2 40.5644 14.36C39.631 14.5467 38.471 14.6933 37.0844 14.8C35.7244 14.9067 34.391 14.96 33.0844 14.96C32.631 14.96 32.0044 14.9333 31.2044 14.88C31.1244 16.5067 31.0844 18.0133 31.0844 19.4C31.0844 21.2933 32.3377 22.24 34.8444 22.24C36.1777 22.24 37.2844 22.1467 38.1644 21.96C39.0444 21.7733 40.0577 21.5067 41.2044 21.16C42.271 20.76 43.1244 20.56 43.7644 20.56ZM67.3947 19.12C67.3947 20.3733 67.128 21.3867 66.5947 22.16C66.0614 22.9333 65.1414 23.6933 63.8347 24.44C62.9547 24.9733 61.9414 25.3867 60.7947 25.68C59.648 25.9467 58.488 26.08 57.3147 26.08C56.5947 26.08 55.7547 25.9467 54.7947 25.68C53.8614 25.3867 53.1014 25.1067 52.5147 24.84L51.8347 24.24C50.6347 23.2533 49.7947 22.4667 49.3147 21.88C48.8614 21.2667 48.6347 20.52 48.6347 19.64C48.6347 18.9467 48.7947 18.4267 49.1147 18.08C49.4347 17.7333 49.9547 17.56 50.6747 17.56C51.048 17.56 51.3947 17.68 51.7147 17.92C52.0347 18.16 52.3147 18.4933 52.5547 18.92C53.2214 20.0933 54.008 20.96 54.9147 21.52C55.848 22.0533 56.9414 22.32 58.1947 22.32C59.368 22.32 60.5547 21.96 61.7547 21.24C62.7414 20.6267 63.2347 20.0267 63.2347 19.44C63.2347 18.4 62.768 17.5333 61.8347 16.84C60.928 16.1467 59.6214 15.52 57.9147 14.96C56.8747 14.5867 55.3147 13.8933 53.2347 12.88C51.8214 12.1867 50.768 11.3333 50.0747 10.32C49.3814 9.30667 49.0347 8.24 49.0347 7.12C49.0347 6.10666 49.3814 5.12 50.0747 4.16C50.7947 3.17333 51.6614 2.44 52.6747 1.96C53.208 1.69333 54.0614 1.41333 55.2347 1.12C56.408 0.799999 57.288 0.64 57.8747 0.64C58.968 0.64 59.9147 0.773333 60.7147 1.04C61.5147 1.28 62.3014 1.62667 63.0747 2.08C64.248 2.74667 65.1147 3.34667 65.6747 3.88C66.2347 4.41333 66.5147 5.08 66.5147 5.88C66.5147 6.36 66.328 6.78667 65.9547 7.16C65.608 7.53333 64.9947 7.72 64.1147 7.72C63.9014 7.72 63.688 7.62667 63.4747 7.44C63.2614 7.25333 62.9947 6.97333 62.6747 6.6C62.248 6.04 61.8347 5.66667 61.4347 5.48C61.328 5.45333 60.888 5.28 60.1147 4.96C59.368 4.64 58.4347 4.48 57.3147 4.48C56.248 4.48 55.3014 4.73333 54.4747 5.24C53.648 5.72 53.2347 6.42667 53.2347 7.36C53.2347 8.29333 54.0747 9.05333 55.7547 9.64C57.5414 10.3333 59.0214 10.9333 60.1947 11.44C61.3947 11.9467 62.5547 12.5467 63.6747 13.24C64.9547 14.0133 65.888 14.8267 66.4747 15.68C67.088 16.5333 67.3947 17.68 67.3947 19.12Z" fill="#F4BF39"/>
<path d="M71.1356 12.16C70.7623 12.1067 70.4556 11.9467 70.2156 11.68C70.0023 11.4133 69.8956 11.0933 69.8956 10.72C69.8956 10.5333 69.9356 10.3333 70.0156 10.12C70.1223 9.90667 70.269 9.72 70.4556 9.56C70.8023 9.21333 71.7356 9.04 73.2556 9.04C73.469 8 73.5756 6.94667 73.5756 5.88C73.5756 5.48 73.5623 5.13333 73.5356 4.84C73.509 4.54667 73.4956 4.32 73.4956 4.16C73.4956 3.57333 73.709 3.13333 74.1356 2.84C74.589 2.54667 75.0956 2.4 75.6556 2.4C76.349 2.4 76.8156 2.57333 77.0556 2.92C77.3223 3.26667 77.4556 3.90667 77.4556 4.84C77.4556 6.22667 77.3356 7.58667 77.0956 8.92C77.5223 8.92 78.109 8.89333 78.8556 8.84C79.869 8.78667 80.6023 8.76 81.0556 8.76C81.509 8.76 81.8956 8.88 82.2156 9.12C82.5623 9.33333 82.7356 9.64 82.7356 10.04C82.7356 11.08 82.269 11.6933 81.3356 11.88C80.349 12.12 78.8156 12.2667 76.7356 12.32C76.6556 13.36 76.6156 14.4933 76.6156 15.72C76.6156 17.64 76.7356 19.2133 76.9756 20.44C77.1356 21.2933 77.4023 21.92 77.7756 22.32C78.1756 22.6933 78.7623 22.88 79.5356 22.88C79.989 22.88 80.4556 22.76 80.9356 22.52C81.2556 22.3333 81.549 22.24 81.8156 22.24C82.189 22.24 82.4556 22.36 82.6156 22.6C82.8023 22.84 82.8956 23.16 82.8956 23.56C82.8956 24.3067 82.4956 24.9333 81.6956 25.44C80.8956 25.92 79.869 26.16 78.6156 26.16C77.8423 26.16 77.0556 25.9733 76.2556 25.6C75.4823 25.2267 74.829 24.76 74.2956 24.2C74.2156 24.12 74.069 23.8133 73.8556 23.28C73.6423 22.7467 73.4556 22.1733 73.2956 21.56C73.029 20.3067 72.8956 18.5467 72.8956 16.28C72.8956 15.2933 72.949 13.9733 73.0556 12.32L71.1356 12.16ZM102.015 13.16C102.228 13.5333 102.401 14.08 102.535 14.8C102.668 15.4933 102.735 16.12 102.735 16.68C102.735 17.72 102.508 19.2 102.055 21.12C100.215 24.48 97.4947 26.16 93.8947 26.16C92.5614 26.16 91.2014 25.72 89.8147 24.84C88.428 23.96 87.468 22.9467 86.9347 21.8C86.2147 19.5067 85.8547 18.0533 85.8547 17.44C85.8547 16.3733 86.0814 15.24 86.5347 14.04C87.0147 12.84 87.6147 11.8 88.3347 10.92C88.788 10.3067 89.6014 9.78667 90.7747 9.36C91.948 8.90667 93.0147 8.68 93.9747 8.68C95.8414 8.68 97.428 9.04 98.7347 9.76C100.041 10.4533 101.135 11.5867 102.015 13.16ZM98.5347 19.6C98.668 19.2533 98.7347 18.36 98.7347 16.92C98.7347 16.1467 98.588 15.3867 98.2947 14.64C98.028 13.8933 97.628 13.2533 97.0947 12.72C97.0414 12.6667 96.8947 12.5867 96.6547 12.48C96.4147 12.3467 96.0814 12.2267 95.6547 12.12C95.2547 11.9867 94.788 11.92 94.2547 11.92C92.7614 11.92 91.668 12.52 90.9747 13.72C90.2814 14.92 89.9347 16.28 89.9347 17.8C89.9347 18.0667 90.0014 18.5733 90.1347 19.32C90.2947 20.0667 90.428 20.5333 90.5347 20.72C90.6147 20.9067 90.8147 21.1733 91.1347 21.52C91.4814 21.84 91.8947 22.1333 92.3747 22.4C92.8814 22.64 93.4014 22.76 93.9347 22.76C95.1347 22.76 96.0947 22.48 96.8147 21.92C97.5347 21.3333 98.108 20.56 98.5347 19.6ZM121.243 8.6C121.643 8.6 122.03 8.72 122.403 8.96C122.803 9.17333 123.003 9.53333 123.003 10.04C123.003 10.3867 122.843 11.1733 122.523 12.4C122.283 13.36 122.15 13.96 122.123 14.2C121.803 16.6533 121.643 20.1333 121.643 24.64C121.643 26 121.683 27.12 121.763 28C121.843 28.9067 121.95 30 122.083 31.28C122.19 32.1867 122.243 32.72 122.243 32.88C122.243 33.44 122.057 33.92 121.683 34.32C121.31 34.7467 120.883 34.96 120.403 34.96C119.763 34.96 119.297 34.8267 119.003 34.56C118.737 34.2933 118.55 33.9067 118.443 33.4C118.31 32.4667 118.177 31.2933 118.043 29.88C117.937 28.4933 117.883 27.2667 117.883 26.2C117.883 25.5867 117.897 25 117.923 24.44C117.95 23.88 117.963 23.5067 117.963 23.32C117.457 23.9333 116.723 24.4133 115.763 24.76C114.83 25.08 113.95 25.24 113.123 25.24C112.083 25.24 111.203 25.1067 110.483 24.84C109.79 24.5467 109.057 24.0133 108.283 23.24C107.617 22.5733 107.07 21.8133 106.643 20.96C106.243 20.1067 106.043 19.2133 106.043 18.28C106.043 17.0267 106.177 15.8133 106.443 14.64C106.71 13.4667 107.137 12.48 107.723 11.68C108.577 10.6933 109.617 9.96 110.843 9.48C112.07 8.97333 113.323 8.72 114.603 8.72C115.297 8.72 116.03 8.88 116.803 9.2C117.577 9.52 118.27 9.93333 118.883 10.44C119.123 9.82667 119.457 9.37333 119.883 9.08C120.31 8.76 120.763 8.6 121.243 8.6ZM113.723 22C114.497 22 115.27 21.7467 116.043 21.24C116.843 20.7333 117.363 20.08 117.603 19.28C117.79 18.08 117.91 16.2933 117.963 13.92C117.537 13.36 117.003 12.9467 116.363 12.68C115.723 12.3867 115.163 12.24 114.683 12.24C114.07 12.24 113.403 12.36 112.683 12.6C111.99 12.84 111.47 13.1867 111.123 13.64C110.377 14.7867 110.003 16.16 110.003 17.76C110.003 18.4533 110.07 19.04 110.203 19.52C110.337 20 110.603 20.4 111.003 20.72C111.51 21.12 111.963 21.44 112.363 21.68C112.79 21.8933 113.243 22 113.723 22Z" fill="white"/>
</svg>
